<svg width="68" height="68" viewBox="0 0 68 68" fill="none" xmlns="http://www.w3.org/2000/svg">
<g clip-path="url(#clip0_81_1251)">
<path d="M18.5723 59.1706L30.8123 68L34.0635 63.495L22.5566 55.1969L18.5723 59.1706Z" fill="white"/>
<path d="M12.5271 40.9169L4.29268 49.1619C3.84643 49.6081 3.60205 50.1925 3.60205 50.8087C3.60205 51.4356 3.84643 52.02 4.29268 52.4662L11.9427 60.1162C12.3783 60.5519 12.9733 60.7962 13.5896 60.7962C14.2164 60.7962 14.8008 60.5519 15.2364 60.1162L23.4708 51.8712L12.5271 40.9169ZM23.0033 16.8937L22.8546 16.8831L21.3989 20.4319L21.6327 20.4956C30.9296 23.0562 41.3421 33.4687 43.9133 42.7656L43.9771 42.9994L47.5258 41.5437L47.5152 41.395C46.8777 31.2587 33.1289 17.5206 23.0033 16.8937Z" fill="white"/>
<path d="M20.9204 22.0575L20.7398 22.015L13.5254 39.5144L24.8729 50.8619L42.3723 43.6475L42.3298 43.4669C40.0348 34.5738 29.8241 24.3738 20.9204 22.0575ZM43.0416 22.6313C43.3816 22.6313 43.7004 22.5038 43.9448 22.2594L52.041 14.1631C52.5404 13.6638 52.5404 12.8563 52.041 12.3569C51.7966 12.1125 51.4779 11.985 51.1379 11.985C50.7979 11.985 50.4791 12.1125 50.2348 12.3569L42.1385 20.4531C41.8941 20.6975 41.7666 21.0163 41.7666 21.3563C41.7666 21.6963 41.8941 22.015 42.1385 22.2594C42.3829 22.4931 42.7016 22.6313 43.0416 22.6313ZM64.3554 24.9263C64.2066 24.3631 63.6966 23.9806 63.1229 23.9806C63.0166 23.9806 62.9104 23.9913 62.8041 24.0231L49.9798 27.3913C49.2998 27.5719 48.896 28.2731 49.0766 28.9425C49.2254 29.5056 49.7248 29.8881 50.3091 29.8881C50.4154 29.8881 50.5323 29.8775 50.6385 29.8456L63.4629 26.4775C64.1323 26.2969 64.536 25.6063 64.3554 24.9263ZM35.4554 15.3213C35.5616 15.3531 35.6679 15.3638 35.7848 15.3638C36.3585 15.3638 36.8685 14.9706 37.0173 14.4181L40.3854 1.59375C40.566 0.91375 40.1623 0.2125 39.4823 0.0425C39.3654 0.010625 39.2591 0 39.1529 0C38.5685 0 38.0691 0.393125 37.9204 0.945625L34.5523 13.77C34.3716 14.45 34.7754 15.1406 35.4554 15.3213Z" fill="white"/>
</g>
<defs>
<clipPath id="clip0_81_1251">
<rect width="68" height="68" fill="white"/>
</clipPath>
</defs>
</svg>
