<svg width="60" height="51" viewBox="0 0 60 51" fill="none" xmlns="http://www.w3.org/2000/svg">
<rect width="60" height="51" rx="10" fill="#1C243A" fill-opacity="0.1"/>
<path d="M19.1129 32.9166C19.7273 32.9166 20.2258 32.4098 20.2258 31.7843V21.2157C20.2258 20.5902 19.7273 20.0834 19.1129 20.0834C18.4985 20.0834 18 20.5902 18 21.2157V31.7843C18 32.4098 18.4985 32.9166 19.1129 32.9166ZM24.3804 35.8677V17.1323C24.3804 16.5068 23.8819 16 23.2675 16C22.653 16 22.1545 16.5068 22.1545 17.1323V35.8677C22.1545 36.4932 22.653 37 23.2675 37C23.8819 37 24.3804 36.4932 24.3804 35.8677ZM28.5356 31.7843V21.2157C28.5356 20.5902 28.0371 20.0834 27.4227 20.0834C26.8083 20.0834 26.3098 20.5902 26.3098 21.2157V31.7843C26.3098 32.4098 26.8083 32.9166 27.4227 32.9166C28.0371 32.9166 28.5356 32.4098 28.5356 31.7843ZM32.6902 35.8677V17.1323C32.6902 16.5068 32.1917 16 31.5773 16C30.9629 16 30.4644 16.5068 30.4644 17.1323V35.8677C30.4644 36.4932 30.9629 37 31.5773 37C32.1917 37 32.6902 36.4932 32.6902 35.8677ZM36.8455 31.7843V21.2157C36.8455 20.5902 36.347 20.0834 35.7325 20.0834C35.1181 20.0834 34.6196 20.5902 34.6196 21.2157V31.7843C34.6196 32.4098 35.1181 32.9166 35.7325 32.9166C36.347 32.9166 36.8455 32.4098 36.8455 31.7843ZM39.8871 16C39.2727 16 38.7742 16.5068 38.7742 17.1323V35.8677C38.7742 36.4932 39.2727 37 39.8871 37C40.5015 37 41 36.4932 41 35.8677V17.1323C41 16.5068 40.5015 16 39.8871 16Z" fill="#1C243A"/>
</svg>
