<svg width="23" height="21" viewBox="0 0 23 21" fill="none" xmlns="http://www.w3.org/2000/svg">
<path d="M1.1129 16.9166C1.72732 16.9166 2.22581 16.4098 2.22581 15.7843V5.21572C2.22581 4.5902 1.72731 4.08337 1.1129 4.08337C0.498492 4.08337 0 4.5902 0 5.21572V15.7843C0 16.4098 0.498492 16.9166 1.1129 16.9166ZM6.38036 19.8677V1.13235C6.38036 0.50683 5.88186 0 5.26745 0C4.65304 0 4.15455 0.50683 4.15455 1.13235V19.8677C4.15455 20.4932 4.65304 21 5.26745 21C5.88186 21 6.38036 20.4932 6.38036 19.8677ZM10.5356 15.7843V5.21572C10.5356 4.5902 10.0371 4.08337 9.42273 4.08337C8.80832 4.08337 8.30983 4.5902 8.30983 5.21572V15.7843C8.30983 16.4098 8.80832 16.9166 9.42273 16.9166C10.0371 16.9166 10.5356 16.4098 10.5356 15.7843ZM14.6902 19.8677V1.13235C14.6902 0.50683 14.1917 0 13.5773 0C12.9629 0 12.4644 0.50683 12.4644 1.13235V19.8677C12.4644 20.4932 12.9629 21 13.5773 21C14.1917 21 14.6902 20.4932 14.6902 19.8677ZM18.8455 15.7843V5.21572C18.8455 4.5902 18.347 4.08337 17.7325 4.08337C17.1181 4.08337 16.6196 4.5902 16.6196 5.21572V15.7843C16.6196 16.4098 17.1181 16.9166 17.7325 16.9166C18.347 16.9166 18.8455 16.4098 18.8455 15.7843ZM21.8871 0C21.2727 0 20.7742 0.50683 20.7742 1.13235V19.8677C20.7742 20.4932 21.2727 21 21.8871 21C22.5015 21 23 20.4932 23 19.8677V1.13235C23 0.50683 22.5015 0 21.8871 0Z" fill="#1C243A"/>
</svg>
