<svg width="25" height="29" viewBox="0 0 25 29" fill="none" xmlns="http://www.w3.org/2000/svg">
<path d="M13.5876 9.63686C13.5876 10.4697 12.8863 11.1709 12.0535 11.1709C11.2207 11.1709 10.5194 10.4697 10.5194 9.63686C10.5194 8.80407 11.2207 8.10278 12.0535 8.10278C12.8863 8.05895 13.5876 8.76024 13.5876 9.63686Z" fill="white"/>
<path d="M23.336 27.4084H22.5909V17.0205L23.3799 17.4588C23.4675 17.5026 23.5113 17.5026 23.599 17.5026C23.7743 17.5026 23.9058 17.4149 23.9935 17.2396C24.125 17.0205 24.0373 16.7136 23.8182 16.5821L22.3717 15.7932L18.1201 13.4701V8.60491L18.6899 8.95556C18.7776 8.99939 18.8653 9.04322 18.9529 9.04322C19.1282 9.04322 19.2597 8.95556 19.3474 8.82407C19.4789 8.60491 19.4351 8.2981 19.1721 8.1666L17.901 7.33382L13.1234 4.39714C12.9043 4.26565 12.7289 4.17799 12.5098 4.13416V2.24942H13.1672C13.4302 2.24942 13.6494 2.03027 13.6494 1.76728C13.6494 1.5043 13.4302 1.28514 13.1672 1.28514H12.5098V0.803002C12.5098 0.540017 12.2906 0.320862 12.0276 0.320862C11.7646 0.320862 11.5455 0.540017 11.5455 0.803002V1.32897H10.888C10.625 1.32897 10.4059 1.54813 10.4059 1.81111C10.4059 2.0741 10.625 2.29325 10.888 2.29325H11.5455V4.17799H11.5017C11.414 4.17799 11.3702 4.22182 11.2825 4.26565C11.1948 4.26565 11.151 4.26565 11.0634 4.30948C11.0195 4.30948 11.0195 4.30948 11.0195 4.35331C10.9757 4.35331 10.9757 4.39714 10.9319 4.39714L6.15428 7.33382L4.88319 8.12277C4.66403 8.25426 4.57637 8.56108 4.70786 8.78024C4.83936 8.99939 5.14617 9.08705 5.36533 8.95556L5.93513 8.60491V13.514L1.72736 15.837L0.237105 16.6698C0.0179506 16.8013 -0.0697114 17.0643 0.0617815 17.3273C0.149443 17.5026 0.324767 17.5903 0.45626 17.5903C0.543922 17.5903 0.631584 17.5903 0.675415 17.5464L1.46437 17.1081V27.4961H0.719246C0.45626 27.4961 0.237105 27.7152 0.237105 27.9782C0.237105 28.2412 0.45626 28.4603 0.719246 28.4603H23.336C23.599 28.4603 23.8182 28.2412 23.8182 27.9782C23.8182 27.6275 23.599 27.4084 23.336 27.4084ZM12.0276 7.11466C13.3864 7.11466 14.526 8.25427 14.526 9.61303C14.526 10.9718 13.4302 12.1114 12.0276 12.1114C10.6689 12.1114 9.52927 10.9718 9.52927 9.61303C9.52927 8.25427 10.6689 7.11466 12.0276 7.11466ZM15.5341 27.4084H14.5698V21.7104C14.5698 21.0091 14.3068 20.3516 13.8247 19.8695C13.3426 19.3873 12.6851 19.1243 11.9838 19.1243C10.5374 19.1243 9.39778 20.3078 9.39778 21.7104V27.4522H8.43349V21.7104C8.43349 19.7818 10.0114 18.1601 11.9838 18.1601C12.9043 18.1601 13.8247 18.5107 14.4822 19.212C15.1396 19.8695 15.4903 20.7461 15.4903 21.7104V27.4084H15.5341Z" fill="white"/>
</svg>
