<svg width="44" height="49" viewBox="0 0 44 49" fill="none" xmlns="http://www.w3.org/2000/svg">
<path d="M39.0729 44.0656V17.2131H4.92708V44.0656H39.0729ZM31.7396 0H36.6667V4.93443H39.0729C40.3715 4.93443 41.5174 5.43169 42.5104 6.42623C43.5035 7.42076 44 8.56831 44 9.86885V44.0656C44 45.3661 43.5035 46.5137 42.5104 47.5082C41.5174 48.5027 40.3715 49 39.0729 49H4.92708C3.55208 49 2.36806 48.5027 1.375 47.5082C0.458333 46.5137 0 45.3661 0 44.0656V9.86885C0 8.56831 0.458333 7.42076 1.375 6.42623C2.36806 5.43169 3.55208 4.93443 4.92708 4.93443H7.33333V0H12.2604V4.93443H31.7396V0ZM34.2604 26.9672V39.2459H22V26.9672H34.2604Z" fill="white"/>
</svg>
