<svg width="32" height="32" viewBox="0 0 32 32" fill="none" xmlns="http://www.w3.org/2000/svg">
<path d="M17.3333 28C17.3333 28.3536 17.1929 28.6928 16.9428 28.9428C16.6928 29.1929 16.3536 29.3333 16 29.3333H5.33333C4.97971 29.3333 4.64057 29.1929 4.39052 28.9428C4.14048 28.6928 4 28.3536 4 28V4.00001C4 3.64638 4.14048 3.30724 4.39052 3.0572C4.64057 2.80715 4.97971 2.66667 5.33333 2.66667H24C24.3536 2.66667 24.6928 2.80715 24.9428 3.0572C25.1929 3.30724 25.3333 3.64638 25.3333 4.00001V14.6667C25.3333 15.0203 25.1929 15.3594 24.9428 15.6095C24.6928 15.8595 24.3536 16 24 16C23.6464 16 23.3072 15.8595 23.0572 15.6095C22.8071 15.3594 22.6667 15.0203 22.6667 14.6667V5.33334H6.66667V26.6667H16C16.3536 26.6667 16.6928 26.8071 16.9428 27.0572C17.1929 27.3072 17.3333 27.6464 17.3333 28ZM28 24.2267C28.001 24.4021 27.9674 24.5761 27.901 24.7385C27.8347 24.901 27.7369 25.0487 27.6133 25.1733L23.84 28.9467C23.7154 29.0702 23.5677 29.168 23.4052 29.2344C23.2428 29.3007 23.0688 29.3344 22.8933 29.3333C22.7179 29.3344 22.5439 29.3007 22.3815 29.2344C22.219 29.168 22.0713 29.0702 21.9467 28.9467L12.5333 19.52C12.3491 19.3336 12.2239 19.0971 12.1733 18.84L11.2267 14.12C11.1825 13.904 11.1926 13.6804 11.2561 13.4693C11.3195 13.2582 11.4343 13.0661 11.5902 12.9102C11.7461 12.7543 11.9382 12.6395 12.1493 12.5761C12.3604 12.5126 12.584 12.5025 12.8 12.5467L17.52 13.4933C17.7771 13.5439 18.0136 13.6691 18.2 13.8533L27.6267 23.28C27.8714 23.5338 28.0056 23.8742 28 24.2267ZM14.6667 17.92L19.7733 23.0133L21.6667 21.1333L16.6 16L14.24 15.5333L14.6667 17.92ZM24.76 24.2267L23.5467 23.0133L21.6533 24.9067L22.8667 26.12L24.76 24.2267ZM10.6667 8C10.313 8 9.97391 8.14048 9.72386 8.39053C9.47381 8.64058 9.33333 8.97972 9.33333 9.33334C9.33333 9.68696 9.47381 10.0261 9.72386 10.2761C9.97391 10.5262 10.313 10.6667 10.6667 10.6667H18.6667C19.0203 10.6667 19.3594 10.5262 19.6095 10.2761C19.8595 10.0261 20 9.68696 20 9.33334C20 8.97972 19.8595 8.64058 19.6095 8.39053C19.3594 8.14048 19.0203 8 18.6667 8H10.6667Z" fill="#1C243A"/>
</svg>
