<svg width="58" height="60" viewBox="0 0 58 60" fill="none" xmlns="http://www.w3.org/2000/svg">
<path d="M10.7342 36.3188C10.6782 36.1552 10.5789 36.0099 10.4468 35.8984C10.3147 35.787 10.1548 35.7135 9.98416 35.6859L7.88885 35.3672L6.94197 33.3516C6.86626 33.1905 6.74627 33.0543 6.59603 32.9589C6.44579 32.8635 6.2715 32.8129 6.09353 32.8129C5.91557 32.8129 5.74128 32.8635 5.59104 32.9589C5.44079 33.0543 5.3208 33.1905 5.2451 33.3516L4.29822 35.3672L2.20291 35.6859C2.03212 35.7119 1.8718 35.7844 1.73961 35.8956C1.60742 36.0068 1.50849 36.1524 1.45372 36.3162C1.39895 36.48 1.39046 36.6558 1.42919 36.8241C1.46792 36.9925 1.55236 37.1469 1.67322 37.2703L3.21541 38.8547L2.84978 41.1C2.82256 41.273 2.8441 41.4502 2.912 41.6117C2.97989 41.7732 3.09146 41.9125 3.23416 42.0141C3.37748 42.1166 3.54696 42.1763 3.72288 42.1862C3.8988 42.1962 4.07394 42.156 4.22791 42.0703L6.09353 41.0391L7.95916 42.0703C8.09646 42.1477 8.25154 42.1881 8.40916 42.1875C8.60415 42.1884 8.79445 42.1277 8.95291 42.0141C9.09561 41.9125 9.20717 41.7732 9.27507 41.6117C9.34297 41.4502 9.36451 41.273 9.33728 41.1L8.97166 38.8547L10.5138 37.2703C10.6352 37.1478 10.7201 36.9939 10.7591 36.8258C10.798 36.6577 10.7893 36.4822 10.7342 36.3188ZM7.29822 37.8797C7.19583 37.9849 7.11958 38.1126 7.07561 38.2527C7.03164 38.3927 7.02119 38.5411 7.0451 38.6859L7.17635 39.4969L6.54822 39.15C6.409 39.0731 6.25256 39.0328 6.09353 39.0328C5.9345 39.0328 5.77807 39.0731 5.63885 39.15L5.01072 39.4969L5.14197 38.6859C5.16699 38.5411 5.15707 38.3924 5.11304 38.2522C5.06902 38.1119 4.99216 37.9842 4.88885 37.8797L4.28885 37.2656L5.07635 37.1437C5.2284 37.1212 5.37254 37.0615 5.49601 36.9699C5.61947 36.8783 5.71845 36.7577 5.78416 36.6188L6.09353 35.9578L6.40291 36.6188C6.46862 36.7577 6.56759 36.8783 6.69106 36.9699C6.81452 37.0615 6.95867 37.1212 7.11072 37.1437L7.89822 37.2656L7.29822 37.8797ZM46.4529 36.3188C46.3977 36.4822 46.3891 36.6577 46.428 36.8258C46.4669 36.9939 46.5518 37.1478 46.6732 37.2703L48.2154 38.8547L47.8498 41.1C47.8226 41.273 47.8441 41.4502 47.912 41.6117C47.9799 41.7732 48.0915 41.9125 48.2342 42.0141C48.3775 42.1166 48.547 42.1763 48.7229 42.1862C48.8988 42.1962 49.0739 42.156 49.2279 42.0703L51.0935 41.0391L52.9592 42.0703C53.0965 42.1477 53.2515 42.1881 53.4092 42.1875C53.6042 42.1884 53.7944 42.1277 53.9529 42.0141C54.0956 41.9125 54.2072 41.7732 54.2751 41.6117C54.343 41.4502 54.3645 41.273 54.3373 41.1L53.9717 38.8547L55.5138 37.2703C55.6347 37.1469 55.7192 36.9925 55.7579 36.8241C55.7966 36.6558 55.7881 36.48 55.7333 36.3162C55.6786 36.1524 55.5796 36.0068 55.4475 35.8956C55.3153 35.7844 55.1549 35.7119 54.9842 35.6859L52.8888 35.3672L51.942 33.3516C51.8663 33.1905 51.7463 33.0543 51.596 32.9589C51.4458 32.8635 51.2715 32.8129 51.0935 32.8129C50.9156 32.8129 50.7413 32.8635 50.591 32.9589C50.4408 33.0543 50.3208 33.1905 50.2451 33.3516L49.2982 35.3672L47.2029 35.6859C47.0323 35.7135 46.8724 35.787 46.7402 35.8984C46.6081 36.0099 46.5088 36.1552 46.4529 36.3188ZM50.0763 37.1437C50.2284 37.1212 50.3725 37.0615 50.496 36.9699C50.6195 36.8783 50.7184 36.7577 50.7842 36.6188L51.0935 35.9578L51.4029 36.6188C51.4686 36.7577 51.5676 36.8783 51.6911 36.9699C51.8145 37.0615 51.9587 37.1212 52.1107 37.1437L52.8982 37.2656L52.2982 37.8797C52.1949 37.9842 52.118 38.1119 52.074 38.2522C52.03 38.3924 52.0201 38.5411 52.0451 38.6859L52.1763 39.4969L51.5482 39.15C51.409 39.0731 51.2526 39.0328 51.0935 39.0328C50.9345 39.0328 50.7781 39.0731 50.6388 39.15L50.0107 39.4969L50.142 38.6859C50.1659 38.5411 50.1554 38.3927 50.1115 38.2527C50.0675 38.1126 49.9912 37.9849 49.8888 37.8797L49.2888 37.2656L50.0763 37.1437ZM46.4365 24.2062C46.5133 24.4427 46.681 24.6389 46.9025 24.7518C47.124 24.8647 47.3813 24.8849 47.6178 24.8081L56.5395 21.9112C56.7761 21.8344 56.9724 21.6666 57.0853 21.445C57.1982 21.2233 57.2185 20.9659 57.1416 20.7293C57.0647 20.4927 56.897 20.2964 56.6753 20.1835C56.4536 20.0705 56.1962 20.0503 55.9596 20.1272L47.0388 23.025C46.8025 23.1019 46.6063 23.2696 46.4935 23.4911C46.3806 23.7126 46.3603 23.9698 46.437 24.2062H46.4365ZM39.6209 14.8312C39.7205 14.9036 39.8334 14.9557 39.9531 14.9844C40.0729 15.0131 40.1971 15.018 40.3187 14.9987C40.4404 14.9794 40.557 14.9364 40.662 14.872C40.7669 14.8077 40.8582 14.7232 40.9306 14.6236L46.4445 7.03922C46.5907 6.83801 46.651 6.58696 46.6121 6.3413C46.5732 6.09564 46.4383 5.8755 46.2371 5.7293C46.0358 5.5831 45.7848 5.52282 45.5391 5.56171C45.2935 5.60061 45.0733 5.73551 44.9271 5.93672L39.4137 13.5211C39.3413 13.6207 39.2892 13.7336 39.2604 13.8533C39.2317 13.973 39.2268 14.0972 39.246 14.2189C39.2652 14.3405 39.3082 14.4571 39.3726 14.5621C39.4369 14.6671 39.5213 14.7584 39.6209 14.8308V14.8312ZM16.2565 14.6236C16.4035 14.8224 16.6231 14.9552 16.8675 14.9928C17.1119 15.0305 17.3613 14.9701 17.5614 14.8247C17.7615 14.6794 17.896 14.4609 17.9357 14.2168C17.9754 13.9727 17.9171 13.7228 17.7734 13.5216L12.2599 5.93672C12.1137 5.73551 11.8936 5.60061 11.6479 5.56171C11.4023 5.52282 11.1512 5.5831 10.95 5.7293C10.7488 5.8755 10.6139 6.09564 10.575 6.3413C10.5361 6.58696 10.5964 6.83801 10.7426 7.03922L16.2565 14.6236ZM0.647596 21.9108L9.56885 24.8077C9.8053 24.8845 10.0626 24.8644 10.2842 24.7515C10.5058 24.6387 10.6734 24.4425 10.7503 24.206C10.8272 23.9696 10.807 23.7122 10.6942 23.4907C10.5814 23.2691 10.3851 23.1014 10.1487 23.0245L1.22744 20.1281C0.990983 20.0512 0.733665 20.0714 0.512094 20.1843C0.290523 20.2971 0.122848 20.4933 0.0459556 20.7298C-0.0309364 20.9662 -0.010747 21.2235 0.102083 21.4451C0.214912 21.6667 0.411139 21.8344 0.647596 21.9112V21.9108ZM28.5935 11.25C28.8422 11.25 29.0806 11.1512 29.2564 10.9754C29.4323 10.7996 29.531 10.5611 29.531 10.3125V0.9375C29.531 0.68886 29.4323 0.450403 29.2564 0.274587C29.0806 0.0987721 28.8422 0 28.5935 0C28.3449 0 28.1064 0.0987721 27.9306 0.274587C27.7548 0.450403 27.656 0.68886 27.656 0.9375V10.3125C27.656 10.5611 27.7548 10.7996 27.9306 10.9754C28.1064 11.1512 28.3449 11.25 28.5935 11.25ZM21.6143 11.5659C21.6912 11.8025 21.8589 11.9987 22.0805 12.1116C22.3021 12.2245 22.5595 12.2447 22.796 12.1678C23.0326 12.0909 23.2288 11.9232 23.3417 11.7016C23.4546 11.48 23.4748 11.2226 23.3979 10.9861L21.8037 6.08297C21.7269 5.84645 21.5593 5.65011 21.3378 5.53715C21.1163 5.42419 20.859 5.40386 20.6224 5.48063C20.3859 5.55739 20.1896 5.72497 20.0766 5.9465C19.9637 6.16803 19.9433 6.42536 20.0201 6.66187L21.6143 11.5659ZM7.93197 16.1555L12.1057 19.1864C12.2051 19.2615 12.3185 19.3161 12.4393 19.3469C12.56 19.3777 12.6857 19.3841 12.809 19.3657C12.9322 19.3474 13.0506 19.3047 13.1572 19.24C13.2637 19.1754 13.3563 19.0902 13.4295 18.9893C13.5028 18.8885 13.5551 18.7741 13.5836 18.6528C13.6121 18.5315 13.6161 18.4057 13.5954 18.2828C13.5747 18.1599 13.5298 18.0424 13.4631 17.9371C13.3965 17.8318 13.3095 17.7408 13.2073 17.6695L9.03353 14.6386C8.93411 14.5635 8.82071 14.5089 8.69996 14.4781C8.57921 14.4473 8.45353 14.4409 8.33027 14.4593C8.20701 14.4776 8.08864 14.5203 7.9821 14.585C7.87555 14.6496 7.78295 14.7348 7.70973 14.8357C7.6365 14.9365 7.58412 15.0509 7.55563 15.1722C7.52714 15.2935 7.52313 15.4193 7.54382 15.5422C7.56451 15.6651 7.6095 15.7826 7.67614 15.8879C7.74279 15.9932 7.82976 16.0842 7.93197 16.1555ZM8.89478 30.9375C9.14342 30.9375 9.38188 30.8387 9.5577 30.6629C9.73351 30.4871 9.83228 30.2486 9.83228 30C9.83228 29.7514 9.73351 29.5129 9.5577 29.3371C9.38188 29.1613 9.14342 29.0625 8.89478 29.0625H3.73525C3.48661 29.0625 3.24816 29.1613 3.07234 29.3371C2.89652 29.5129 2.79775 29.7514 2.79775 30C2.79775 30.2486 2.89652 30.4871 3.07234 30.6629C3.24816 30.8387 3.48661 30.9375 3.73525 30.9375H8.89478ZM53.4518 30.9375C53.7005 30.9375 53.9389 30.8387 54.1147 30.6629C54.2905 30.4871 54.3893 30.2486 54.3893 30C54.3893 29.7514 54.2905 29.5129 54.1147 29.3371C53.9389 29.1613 53.7005 29.0625 53.4518 29.0625H48.2923C48.0436 29.0625 47.8052 29.1613 47.6294 29.3371C47.4536 29.5129 47.3548 29.7514 47.3548 30C47.3548 30.2486 47.4536 30.4871 47.6294 30.6629C47.8052 30.8387 48.0436 30.9375 48.2923 30.9375H53.4518ZM43.7717 18.9788C43.9178 19.1799 44.1378 19.3147 44.3833 19.3537C44.6288 19.3926 44.8797 19.3324 45.0809 19.1864L49.2546 16.1555C49.3568 16.0842 49.4438 15.9932 49.5105 15.8879C49.5771 15.7826 49.6221 15.6651 49.6428 15.5422C49.6635 15.4193 49.6595 15.2935 49.631 15.1722C49.6025 15.0509 49.5501 14.9365 49.4769 14.8357C49.4036 14.7348 49.3111 14.6496 49.2045 14.585C49.098 14.5203 48.9796 14.4776 48.8563 14.4593C48.7331 14.4409 48.6074 14.4473 48.4866 14.4781C48.3659 14.5089 48.2525 14.5635 48.1531 14.6386L43.9793 17.6695C43.8797 17.7418 43.7953 17.8331 43.7309 17.938C43.6666 18.0429 43.6235 18.1595 43.6042 18.2811C43.5849 18.4027 43.5898 18.5269 43.6185 18.6466C43.6473 18.7663 43.6993 18.8792 43.7717 18.9788ZM34.3906 12.1678C34.5076 12.206 34.6311 12.2207 34.7539 12.2111C34.8766 12.2015 34.9963 12.1677 35.106 12.1118C35.2157 12.0559 35.3133 11.9789 35.3933 11.8853C35.4732 11.7916 35.5339 11.6831 35.5718 11.5659L37.1665 6.66187C37.2433 6.42536 37.2231 6.168 37.1101 5.94643C36.9972 5.72486 36.8009 5.55722 36.5644 5.48039C36.3279 5.40356 36.0705 5.42383 35.8489 5.53675C35.6274 5.64967 35.4597 5.84598 35.3829 6.0825L33.7887 10.9861C33.7119 11.2226 33.7321 11.4798 33.845 11.7014C33.9579 11.9229 34.1541 12.0905 34.3906 12.1673V12.1678ZM14.9998 27.6562V31.4062C15.0003 31.9034 15.198 32.38 15.5495 32.7315C15.901 33.083 16.3777 33.2808 16.8748 33.2812H24.8435V58.125C24.844 58.6221 25.0417 59.0988 25.3933 59.4503C25.7448 59.8018 26.2214 59.9995 26.7185 60H30.4685C30.9657 59.9995 31.4423 59.8018 31.7938 59.4503C32.1453 59.0988 32.343 58.6221 32.3435 58.125V33.2812H40.3123C40.8094 33.2808 41.286 33.083 41.6376 32.7315C41.9891 32.38 42.1868 31.9034 42.1873 31.4062V27.6562C42.1868 27.1591 41.9891 26.6825 41.6376 26.331C41.286 25.9794 40.8094 25.7817 40.3123 25.7812H32.3435V16.875C32.343 16.3779 32.1453 15.9012 31.7938 15.5497C31.4423 15.1982 30.9657 15.0005 30.4685 15H26.7185C26.2214 15.0005 25.7448 15.1982 25.3933 15.5497C25.0417 15.9012 24.844 16.3779 24.8435 16.875V25.7812H16.8748C16.3777 25.7817 15.901 25.9794 15.5495 26.331C15.198 26.6825 15.0003 27.1591 14.9998 27.6562Z" fill="white"/>
</svg>
