<svg width="70" height="70" viewBox="0 0 70 70" fill="none" xmlns="http://www.w3.org/2000/svg">
<path d="M19.5432 8.75C17.1917 8.75 15.3126 10.7472 15.3126 13.125V14.1466C15.3118 14.1706 15.3118 14.1947 15.3126 14.2188V54.8253C15.3126 57.2294 17.3382 59.0581 19.6876 59.0581H53.5348L53.5785 59.0625C53.621 59.062 53.6633 59.0591 53.7054 59.0538C53.7178 59.0525 53.7302 59.051 53.7426 59.0494C53.7602 59.0469 53.7777 59.044 53.7951 59.0406C54.0644 58.9919 54.3057 58.8439 54.4713 58.626C54.6369 58.408 54.7147 58.1359 54.6894 57.8634C54.6641 57.5908 54.5376 57.3376 54.3348 57.1539C54.1319 56.9701 53.8676 56.869 53.5939 56.8706H53.5479C52.2376 56.8597 51.3889 56.1509 51.3889 54.9303V54.6875C51.3889 53.4756 52.3207 52.5372 53.526 52.5087C53.8083 52.527 54.0866 52.4353 54.3026 52.2528L54.3114 52.2484C54.3364 52.2269 54.3605 52.2043 54.3835 52.1806L54.3879 52.1719C54.5088 52.0491 54.5989 51.8995 54.651 51.7353C54.7031 51.5711 54.7156 51.3969 54.6876 51.2269V9.84375C54.6876 9.55367 54.5724 9.27547 54.3673 9.07035C54.1621 8.86523 53.8839 8.75 53.5939 8.75H19.5432ZM19.5432 10.9375H21.8751V50.3125H19.6876C18.887 50.3125 18.1476 50.5444 17.5001 50.925V26.3244C17.501 26.2996 17.501 26.2748 17.5001 26.25V13.125C17.5001 11.8672 18.4189 10.9375 19.5432 10.9375ZM24.0626 10.9375H52.5001V14.1466C52.4993 14.1706 52.4993 14.1947 52.5001 14.2188V50.3125H24.0626V10.9375ZM36.0939 15.3125C35.8038 15.3125 35.5256 15.4277 35.3205 15.6329C35.1153 15.838 35.0001 16.1162 35.0001 16.4062V21.875H29.5314C29.2413 21.875 28.9631 21.9902 28.758 22.1954C28.5528 22.4005 28.4376 22.6787 28.4376 22.9688V27.3438C28.4376 27.6338 28.5528 27.912 28.758 28.1171C28.9631 28.3223 29.2413 28.4375 29.5314 28.4375H35.0001V44.8438C35.0001 45.1338 35.1153 45.412 35.3205 45.6171C35.5256 45.8223 35.8038 45.9375 36.0939 45.9375H40.4689C40.7589 45.9375 41.0371 45.8223 41.2423 45.6171C41.4474 45.412 41.5626 45.1338 41.5626 44.8438V28.4375H47.0314C47.3214 28.4375 47.5996 28.3223 47.8048 28.1171C48.0099 27.912 48.1251 27.6338 48.1251 27.3438V22.9688C48.1251 22.6787 48.0099 22.4005 47.8048 22.1954C47.5996 21.9902 47.3214 21.875 47.0314 21.875H41.5626V16.4062C41.5626 16.1162 41.4474 15.838 41.2423 15.6329C41.0371 15.4277 40.7589 15.3125 40.4689 15.3125H36.0939ZM37.1876 17.5H39.3751V22.9688C39.3751 23.2588 39.4903 23.537 39.6955 23.7421C39.9006 23.9473 40.1788 24.0625 40.4689 24.0625H45.9376V26.25H40.4689C40.1788 26.25 39.9006 26.3652 39.6955 26.5704C39.4903 26.7755 39.3751 27.0537 39.3751 27.3438V43.75H37.1876V27.3438C37.1876 27.0537 37.0724 26.7755 36.8673 26.5704C36.6621 26.3652 36.3839 26.25 36.0939 26.25H30.6251V24.0625H36.0939C36.3839 24.0625 36.6621 23.9473 36.8673 23.7421C37.0724 23.537 37.1876 23.2588 37.1876 22.9688V17.5ZM19.6876 52.5H49.8117C49.4354 53.1453 49.2014 53.8891 49.2014 54.6875V54.9303C49.2014 55.6522 49.4048 56.2997 49.7264 56.8706H19.6876C18.4014 56.8706 17.5001 56.0547 17.5001 54.8231V54.7641C17.501 54.7385 17.501 54.713 17.5001 54.6875C17.5001 53.4559 18.456 52.5 19.6876 52.5Z" fill="white"/>
</svg>
