<svg width="12" height="16" viewBox="0 0 12 16" fill="none" xmlns="http://www.w3.org/2000/svg">
<path d="M8.57143 0C8.79876 0 9.01677 0.0903058 9.17752 0.251051C9.33827 0.411797 9.42857 0.629815 9.42857 0.857143H11.1429C11.3702 0.857143 11.5882 0.947449 11.7489 1.10819C11.9097 1.26894 12 1.48696 12 1.71429C12 1.94161 11.9097 2.15963 11.7489 2.32038C11.5882 2.48112 11.3702 2.57143 11.1429 2.57143H0.857143C0.629814 2.57143 0.411797 2.48112 0.251051 2.32038C0.090306 2.15963 0 1.94161 0 1.71429C0 1.48696 0.090306 1.26894 0.251051 1.10819C0.411797 0.947449 0.629814 0.857143 0.857143 0.857143H2.57143C2.57143 0.629815 2.66173 0.411797 2.82248 0.251051C2.98323 0.0903058 3.20124 0 3.42857 0H8.57143Z" fill="#FF0000"/>
<path fill-rule="evenodd" clip-rule="evenodd" d="M0.856934 3.42857H11.1426V13.7143C11.1426 14.1689 10.962 14.605 10.6405 14.9265C10.3191 15.248 9.88302 15.4286 9.42836 15.4286H2.57122C2.11656 15.4286 1.68053 15.248 1.35904 14.9265C1.03755 14.605 0.856934 14.1689 0.856934 13.7143V3.42857ZM3.85693 5.14286C3.74327 5.14286 3.63426 5.18801 3.55389 5.26838C3.47352 5.34876 3.42836 5.45777 3.42836 5.57143V13.2857C3.42836 13.3994 3.47352 13.5084 3.55389 13.5888C3.63426 13.6691 3.74327 13.7143 3.85693 13.7143C3.9706 13.7143 4.07961 13.6691 4.15998 13.5888C4.24035 13.5084 4.28551 13.3994 4.28551 13.2857V5.57143C4.28551 5.45777 4.24035 5.34876 4.15998 5.26838C4.07961 5.18801 3.9706 5.14286 3.85693 5.14286ZM8.14265 5.14286C8.02898 5.14286 7.91998 5.18801 7.8396 5.26838C7.75923 5.34876 7.71408 5.45777 7.71408 5.57143V13.2857C7.71408 13.3994 7.75923 13.5084 7.8396 13.5888C7.91998 13.6691 8.02898 13.7143 8.14265 13.7143C8.25631 13.7143 8.36532 13.6691 8.44569 13.5888C8.52607 13.5084 8.57122 13.3994 8.57122 13.2857V5.57143C8.57122 5.45777 8.52607 5.34876 8.44569 5.26838C8.36532 5.18801 8.25631 5.14286 8.14265 5.14286Z" fill="#FF0000"/>
</svg>
