<svg width="56" height="56" viewBox="0 0 56 56" fill="none" xmlns="http://www.w3.org/2000/svg">
<path fill-rule="evenodd" clip-rule="evenodd" d="M0 9.6875C0 4.33724 4.33724 0 9.6875 0H45.8542C51.2045 0 55.5417 4.33724 55.5417 9.6875V45.8542C55.5417 51.2045 51.2045 55.5417 45.8542 55.5417H25.1875C24.1175 55.5417 23.25 54.6742 23.25 53.6042C23.25 52.5342 24.1175 51.6667 25.1875 51.6667H45.8542C49.0642 51.6667 51.6667 49.0642 51.6667 45.8542V9.6875C51.6667 6.47735 49.0642 3.875 45.8542 3.875H9.6875C6.47735 3.875 3.875 6.47735 3.875 9.6875V45.8542C3.875 49.0642 6.47735 51.6667 9.6875 51.6667H14.8542C15.9242 51.6667 16.7917 52.5342 16.7917 53.6042C16.7917 54.6742 15.9242 55.5417 14.8542 55.5417H9.6875C4.33724 55.5417 0 51.2045 0 45.8542V9.6875Z" fill="white"/>
<path fill-rule="evenodd" clip-rule="evenodd" d="M0 20.0209C0 18.9508 0.867458 18.0834 1.9375 18.0834H53.6042C54.6742 18.0834 55.5417 18.9508 55.5417 20.0209C55.5417 21.0909 54.6742 21.9584 53.6042 21.9584H1.9375C0.867458 21.9584 0 21.0909 0 20.0209ZM13.5625 9.04169C12.4925 9.04169 11.625 9.90914 11.625 10.9792C11.625 12.0492 12.4925 12.9167 13.5625 12.9167C14.6325 12.9167 15.5 12.0492 15.5 10.9792C15.5 9.90914 14.6325 9.04169 13.5625 9.04169ZM7.75 10.9792C7.75 7.76903 10.3523 5.16669 13.5625 5.16669C16.7727 5.16669 19.375 7.76903 19.375 10.9792C19.375 14.1893 16.7727 16.7917 13.5625 16.7917C10.3523 16.7917 7.75 14.1893 7.75 10.9792ZM23.25 10.9792C23.25 9.90914 24.1175 9.04169 25.1875 9.04169H45.8542C46.9242 9.04169 47.7917 9.90914 47.7917 10.9792C47.7917 12.0492 46.9242 12.9167 45.8542 12.9167H25.1875C24.1175 12.9167 23.25 12.0492 23.25 10.9792Z" fill="white"/>
</svg>
