<svg width="16" height="14" viewBox="0 0 16 14" fill="none" xmlns="http://www.w3.org/2000/svg">
<path d="M7.82276 3.19618C8.67141 3.19618 9.35939 2.48069 9.35939 1.59809C9.35939 0.71549 8.67141 0 7.82276 0C6.9741 0 6.28613 0.71549 6.28613 1.59809C6.28613 2.48069 6.9741 3.19618 7.82276 3.19618Z" fill="white"/>
<path d="M8.76156 3.44213H6.88409C6.38548 3.42092 5.89885 3.59851 5.5311 3.93588C5.16334 4.27324 4.94455 4.7428 4.92279 5.24138V7.67204C4.92523 7.95876 5.01618 8.23772 5.18322 8.47077C5.35025 8.70382 5.58521 8.87957 5.85594 8.97398V12.2149C5.84494 12.5031 5.94579 12.7844 6.13741 13C6.32903 13.2155 6.59657 13.3487 6.88409 13.3715H8.76156C9.04908 13.3487 9.31662 13.2155 9.50824 13C9.69985 12.7844 9.80071 12.5031 9.78971 12.2149V8.97398C10.0587 8.88022 10.2924 8.70617 10.4593 8.47534C10.6261 8.2445 10.7181 7.96802 10.7229 7.68322V5.24138C10.7011 4.7428 10.4823 4.27324 10.1146 3.93588C9.7468 3.59851 9.26017 3.42092 8.76156 3.44213ZM2.23509 3.64329C2.42093 3.64997 2.60454 3.60097 2.76234 3.50258C2.92014 3.40419 3.04494 3.2609 3.12074 3.09108C3.19654 2.92127 3.21987 2.73268 3.18774 2.54951C3.15561 2.36635 3.06948 2.19696 2.94041 2.06308C2.81135 1.9292 2.64522 1.83694 2.46335 1.79813C2.28148 1.75933 2.09217 1.77574 1.9197 1.84528C1.74722 1.91481 1.59946 2.03429 1.49536 2.18839C1.39127 2.34249 1.33559 2.52417 1.33547 2.71014C1.33325 2.83048 1.35476 2.95009 1.39877 3.06212C1.44278 3.17416 1.50843 3.27642 1.59197 3.36308C1.67551 3.44973 1.77531 3.51908 1.88566 3.56716C1.99601 3.61524 2.11474 3.64111 2.23509 3.64329ZM2.90562 4.09031H1.56456C1.17006 4.07203 0.784307 4.21033 0.491281 4.4751C0.198254 4.73987 0.0216809 5.10967 0 5.504V7.18032C0.0032539 7.42553 0.0870751 7.66287 0.238541 7.85574C0.390007 8.0486 0.600708 8.18629 0.83816 8.24758V10.3765C0.822625 10.6166 0.901591 10.8533 1.0582 11.036C1.2148 11.2187 1.43663 11.333 1.67632 11.3544H2.84416C2.96537 11.3452 3.08357 11.3121 3.19196 11.2571C3.30034 11.2021 3.39678 11.1262 3.47572 11.0337C3.55466 10.9413 3.61453 10.8341 3.65191 10.7185C3.68928 10.6028 3.70341 10.4809 3.69349 10.3597V8.21405C3.91679 8.14256 4.11194 8.00265 4.25133 7.81412C4.39072 7.62559 4.46728 7.398 4.47019 7.16356V5.48724C4.44428 5.09589 4.26587 4.73033 3.97331 4.46912C3.68075 4.2079 3.29739 4.07189 2.90562 4.09031ZM13.4106 3.64329C13.5964 3.64997 13.78 3.60097 13.9378 3.50258C14.0956 3.40419 14.2204 3.2609 14.2962 3.09108C14.372 2.92127 14.3953 2.73268 14.3632 2.54951C14.3311 2.36635 14.2449 2.19696 14.1159 2.06308C13.9868 1.9292 13.8207 1.83694 13.6388 1.79813C13.4569 1.75933 13.2676 1.77574 13.0952 1.84528C12.9227 1.91481 12.7749 2.03429 12.6708 2.18839C12.5667 2.34249 12.5111 2.52417 12.5109 2.71014C12.5087 2.83048 12.5302 2.95009 12.5742 3.06212C12.6182 3.17416 12.6839 3.27642 12.7674 3.36308C12.851 3.44973 12.9508 3.51908 13.0611 3.56716C13.1715 3.61524 13.2902 3.64111 13.4106 3.64329ZM14.0811 4.09031H12.74C12.3455 4.07203 11.9598 4.21033 11.6667 4.4751C11.3737 4.73987 11.1971 5.10967 11.1755 5.504V7.18032C11.1787 7.42553 11.2625 7.66287 11.414 7.85574C11.5655 8.0486 11.7762 8.18629 12.0136 8.24758V10.3765C11.9981 10.6166 12.0771 10.8533 12.2337 11.036C12.3903 11.2187 12.6121 11.333 12.8518 11.3544H14.0084C14.1297 11.3452 14.2479 11.3121 14.3562 11.2571C14.4646 11.2021 14.5611 11.1262 14.64 11.0337C14.7189 10.9413 14.7788 10.8341 14.8162 10.7185C14.8536 10.6028 14.8677 10.4809 14.8578 10.3597V8.21405C15.0832 8.1445 15.2808 8.00542 15.4223 7.81673C15.5638 7.62803 15.642 7.3994 15.6456 7.16356V5.48724C15.6197 5.09589 15.4413 4.73033 15.1488 4.46912C14.8562 4.2079 14.4729 4.07189 14.0811 4.09031Z" fill="white"/>
</svg>
