<svg width="26" height="26" viewBox="0 0 26 26" fill="none" xmlns="http://www.w3.org/2000/svg">
<path d="M21.6667 0H4.33333C3.18406 0 2.08186 0.456546 1.2692 1.2692C0.456546 2.08186 0 3.18406 0 4.33333V21.6667C0 22.8159 0.456546 23.9181 1.2692 24.7308C2.08186 25.5435 3.18406 26 4.33333 26H21.6667C22.8159 26 23.9181 25.5435 24.7308 24.7308C25.5435 23.9181 26 22.8159 26 21.6667V4.33333C26 3.18406 25.5435 2.08186 24.7308 1.2692C23.9181 0.456546 22.8159 0 21.6667 0ZM4.33333 2.88889H21.6667C22.0498 2.88889 22.4172 3.04107 22.688 3.31196C22.9589 3.58284 23.1111 3.95024 23.1111 4.33333V16.4089L18.4889 12.4656C17.7727 11.8763 16.8741 11.5541 15.9467 11.5541C15.0192 11.5541 14.1206 11.8763 13.4044 12.4656L2.88889 21.2333V4.33333C2.88889 3.95024 3.04107 3.58284 3.31196 3.31196C3.58284 3.04107 3.95024 2.88889 4.33333 2.88889Z" fill="#1C243A"/>
<path d="M7.22233 10.1112C8.41895 10.1112 9.389 9.14112 9.389 7.9445C9.389 6.74788 8.41895 5.77783 7.22233 5.77783C6.02571 5.77783 5.05566 6.74788 5.05566 7.9445C5.05566 9.14112 6.02571 10.1112 7.22233 10.1112Z" fill="#1C243A"/>
</svg>
