<svg width="60" height="51" viewBox="0 0 60 51" fill="none" xmlns="http://www.w3.org/2000/svg">
<rect width="60" height="51" rx="10" fill="#1C243A" fill-opacity="0.1"/>
<path d="M38.6667 14H21.3333C20.1841 14 19.0819 14.4565 18.2692 15.2692C17.4565 16.0819 17 17.1841 17 18.3333V35.6667C17 36.8159 17.4565 37.9181 18.2692 38.7308C19.0819 39.5435 20.1841 40 21.3333 40H38.6667C39.8159 40 40.9181 39.5435 41.7308 38.7308C42.5435 37.9181 43 36.8159 43 35.6667V18.3333C43 17.1841 42.5435 16.0819 41.7308 15.2692C40.9181 14.4565 39.8159 14 38.6667 14ZM21.3333 16.8889H38.6667C39.0498 16.8889 39.4172 17.0411 39.688 17.312C39.9589 17.5828 40.1111 17.9502 40.1111 18.3333V30.4089L35.4889 26.4656C34.7727 25.8763 33.8741 25.5541 32.9467 25.5541C32.0192 25.5541 31.1206 25.8763 30.4044 26.4656L19.8889 35.2333V18.3333C19.8889 17.9502 20.0411 17.5828 20.312 17.312C20.5828 17.0411 20.9502 16.8889 21.3333 16.8889Z" fill="#1C243A"/>
<path d="M24.2223 24.1112C25.4189 24.1112 26.389 23.1411 26.389 21.9445C26.389 20.7479 25.4189 19.7778 24.2223 19.7778C23.0257 19.7778 22.0557 20.7479 22.0557 21.9445C22.0557 23.1411 23.0257 24.1112 24.2223 24.1112Z" fill="#1C243A"/>
</svg>
