<svg width="30" height="30" viewBox="0 0 30 30" fill="none" xmlns="http://www.w3.org/2000/svg">
<path d="M30 26.5687H0V28.9828H30V26.5687Z" fill="white"/>
<path d="M4.57971 24.6609V19.7812C3.07034 20.5406 2.09534 22.0781 2.09534 23.8078V25.6031H4.83284C4.67346 25.3219 4.57971 25.0078 4.57971 24.6609ZM27.9047 23.8078C27.9047 22.0781 26.9344 20.5406 25.4203 19.7812V24.6656C25.4203 25.0078 25.3219 25.3219 25.1625 25.6031H27.9V23.8078H27.9047ZM6.48284 25.6031H23.5172C24.0328 25.6031 24.4547 25.1812 24.4547 24.6656V15.5578C24.4547 15.1641 24.1406 14.85 23.7516 14.85H13.111C13.1063 14.85 13.1063 14.85 13.1016 14.85H6.24846C5.8594 14.85 5.54534 15.1641 5.54534 15.5578V24.6656C5.54534 25.1812 5.96721 25.6031 6.48284 25.6031ZM11.8547 18.7125H18.1453C18.4125 18.7125 18.6281 18.9281 18.6281 19.1953C18.6281 19.4672 18.4125 19.6781 18.1453 19.6781H11.8547C11.5875 19.6781 11.3719 19.4672 11.3719 19.1953C11.3719 18.9281 11.5875 18.7125 11.8547 18.7125ZM11.8547 20.7656H18.1453C18.4125 20.7656 18.6281 20.9813 18.6281 21.2484C18.6281 21.5203 18.4125 21.7313 18.1453 21.7313H11.8547C11.5875 21.7313 11.3719 21.5203 11.3719 21.2484C11.3719 20.9859 11.5875 20.7656 11.8547 20.7656ZM12.7453 5.20312L10.6032 7.12031V7.35469C10.6032 10.4016 11.6157 12.8859 13.2563 13.8891H16.7532C18.2813 12.9516 19.2656 10.7156 19.3828 7.93125C16.5516 8.23125 13.7016 6.03281 12.7453 5.20312Z" fill="white"/>
<path d="M9.63284 7.35002C9.63284 7.18127 9.63284 7.00315 9.65159 6.84377C9.66096 6.7219 9.71721 6.6094 9.80627 6.5344L12.4172 4.19534C12.6047 4.02659 12.8906 4.03127 13.0735 4.20471C13.111 4.23752 16.6922 7.63127 19.7578 6.88127C19.9031 6.84846 20.0578 6.88127 20.175 6.97034C20.2922 7.06409 20.3578 7.20471 20.3578 7.35471C20.3578 10.1016 19.575 12.4641 18.2531 13.8891H22.0125V8.02971C22.0125 6.14534 21.286 4.38752 19.9641 3.07502C18.6328 1.74846 16.8703 1.01721 15 1.01721C11.1281 1.01721 7.97815 4.16252 7.97815 8.02971V13.8844H11.7422C10.4203 12.4594 9.63284 10.0969 9.63284 7.35002Z" fill="white"/>
</svg>
