<svg width="30" height="30" viewBox="0 0 30 30" fill="none" xmlns="http://www.w3.org/2000/svg">
<path d="M30 26.5687H0V28.9828H30V26.5687Z" fill="#1C243A"/>
<path d="M4.57959 24.6609V19.7812C3.07022 20.5406 2.09521 22.0781 2.09521 23.8078V25.6031H4.83272C4.67334 25.3219 4.57959 25.0078 4.57959 24.6609ZM27.9046 23.8078C27.9046 22.0781 26.9343 20.5406 25.4202 19.7812V24.6656C25.4202 25.0078 25.3218 25.3219 25.1624 25.6031H27.8999V23.8078H27.9046ZM6.48272 25.6031H23.5171C24.0327 25.6031 24.4546 25.1812 24.4546 24.6656V15.5578C24.4546 15.1641 24.1405 14.85 23.7515 14.85H13.1108C13.1062 14.85 13.1062 14.85 13.1015 14.85H6.24834C5.85928 14.85 5.54521 15.1641 5.54521 15.5578V24.6656C5.54521 25.1812 5.96709 25.6031 6.48272 25.6031ZM11.8546 18.7125H18.1452C18.4124 18.7125 18.628 18.9281 18.628 19.1953C18.628 19.4672 18.4124 19.6781 18.1452 19.6781H11.8546C11.5874 19.6781 11.3718 19.4672 11.3718 19.1953C11.3718 18.9281 11.5874 18.7125 11.8546 18.7125ZM11.8546 20.7656H18.1452C18.4124 20.7656 18.628 20.9813 18.628 21.2484C18.628 21.5203 18.4124 21.7313 18.1452 21.7313H11.8546C11.5874 21.7313 11.3718 21.5203 11.3718 21.2484C11.3718 20.9859 11.5874 20.7656 11.8546 20.7656ZM12.7452 5.20312L10.603 7.12031V7.35469C10.603 10.4016 11.6155 12.8859 13.2562 13.8891H16.753C18.2812 12.9516 19.2655 10.7156 19.3827 7.93125C16.5515 8.23125 13.7015 6.03281 12.7452 5.20312Z" fill="#1C243A"/>
<path d="M9.63271 7.35002C9.63271 7.18127 9.63271 7.00315 9.65146 6.84377C9.66084 6.7219 9.71709 6.6094 9.80615 6.5344L12.4171 4.19534C12.6046 4.02659 12.8905 4.03127 13.0733 4.20471C13.1108 4.23752 16.6921 7.63127 19.7577 6.88127C19.903 6.84846 20.0577 6.88127 20.1749 6.97034C20.2921 7.06409 20.3577 7.20471 20.3577 7.35471C20.3577 10.1016 19.5749 12.4641 18.253 13.8891H22.0124V8.02971C22.0124 6.14534 21.2858 4.38752 19.964 3.07502C18.6327 1.74846 16.8702 1.01721 14.9999 1.01721C11.128 1.01721 7.97803 4.16252 7.97803 8.02971V13.8844H11.7421C10.4202 12.4594 9.63271 10.0969 9.63271 7.35002Z" fill="#1C243A"/>
</svg>
