<svg width="13" height="17" viewBox="0 0 13 17" fill="none" xmlns="http://www.w3.org/2000/svg">
<path d="M12.0435 6.11029C12.0435 10.5545 6.9482 15.7757 6.73154 15.9958C6.5433 16.1868 6.28802 16.294 6.02186 16.294C5.75569 16.294 5.50042 16.1868 5.31217 15.9958C5.09526 15.7756 0 10.5545 0 6.11029C0 4.48974 0.634431 2.93556 1.76372 1.78966C2.89302 0.643761 4.42467 0 6.02173 0C7.6188 0 9.15045 0.643761 10.2797 1.78966C11.409 2.93556 12.0435 4.48974 12.0435 6.11029ZM6.02173 9.16543C6.61723 9.16543 7.19935 8.98625 7.69448 8.65055C8.18962 8.31484 8.57553 7.83769 8.80341 7.27944C9.0313 6.72119 9.09092 6.1069 8.97475 5.51426C8.85857 4.92162 8.57181 4.37724 8.15074 3.94997C7.72966 3.52271 7.19317 3.23173 6.60912 3.11385C6.02507 2.99596 5.41969 3.05647 4.86952 3.2877C4.31936 3.51894 3.84913 3.91052 3.51829 4.41294C3.18745 4.91536 3.01087 5.50604 3.01087 6.11029C3.01085 6.5115 3.08872 6.90879 3.24002 7.27946C3.39133 7.65014 3.6131 7.98694 3.89269 8.27064C4.17228 8.55434 4.5042 8.77938 4.8695 8.93291C5.23481 9.08644 5.62634 9.16545 6.02173 9.16543Z" fill="white"/>
</svg>
