<svg width="33" height="25" viewBox="0 0 33 25" fill="none" xmlns="http://www.w3.org/2000/svg">
<path d="M28.5208 1.54167H20.0417C20.0413 1.13292 19.8787 0.741025 19.5897 0.451995C19.3006 0.162964 18.9088 0.000408138 18.5 0H13.875C13.4662 0.000408138 13.0744 0.162964 12.7853 0.451995C12.4963 0.741025 12.3337 1.13292 12.3333 1.54167H3.85417C2.83235 1.54289 1.85274 1.94935 1.13021 2.67188C0.40768 3.39441 0.00122397 4.37402 0 5.39583V20.8125C0.00122397 21.8343 0.40768 22.8139 1.13021 23.5365C1.85274 24.259 2.83235 24.6654 3.85417 24.6667H28.5208C29.5426 24.6654 30.5223 24.259 31.2448 23.5365C31.9673 22.8139 32.3738 21.8343 32.375 20.8125V5.39583C32.3738 4.37402 31.9673 3.39441 31.2448 2.67188C30.5223 1.94935 29.5426 1.54289 28.5208 1.54167ZM13.875 1.54167H18.5V2.31558L18.5015 3.08333H13.875V1.54167ZM30.8333 20.8125C30.8327 21.4256 30.5889 22.0135 30.1553 22.447C29.7218 22.8806 29.134 23.1244 28.5208 23.125H3.85417C3.24104 23.1244 2.6532 22.8806 2.21966 22.447C1.78611 22.0135 1.54228 21.4256 1.54167 20.8125V5.39583C1.54228 4.78271 1.78611 4.19487 2.21966 3.76133C2.6532 3.32778 3.24104 3.08395 3.85417 3.08333H12.3333C12.3337 3.49208 12.4963 3.88398 12.7853 4.17301C13.0744 4.46204 13.4662 4.62459 13.875 4.625H18.5C18.9088 4.62459 19.3006 4.46204 19.5897 4.17301C19.8787 3.88398 20.0413 3.49208 20.0417 3.08333H28.5208C29.134 3.08395 29.7218 3.32778 30.1553 3.76133C30.5889 4.19487 30.8327 4.78271 30.8333 5.39583V20.8125Z" fill="#1C243A"/>
<path d="M10.0208 13.1042C10.6307 13.1042 11.2268 12.9233 11.7338 12.5845C12.2409 12.2457 12.6361 11.7642 12.8695 11.2008C13.1028 10.6374 13.1639 10.0174 13.0449 9.41931C12.926 8.8212 12.6323 8.2718 12.2011 7.84059C11.7699 7.40938 11.2205 7.11572 10.6224 6.99675C10.0243 6.87778 9.4043 6.93884 8.84089 7.17221C8.27749 7.40558 7.79594 7.80078 7.45714 8.30783C7.11833 8.81488 6.9375 9.41101 6.9375 10.0208C6.93832 10.8383 7.26343 11.6221 7.84149 12.2002C8.41955 12.7782 9.20333 13.1034 10.0208 13.1042ZM10.0208 8.47917C10.3257 8.47917 10.6238 8.56959 10.8773 8.73899C11.1309 8.90839 11.3285 9.14916 11.4451 9.43086C11.5618 9.71257 11.5924 10.0225 11.5329 10.3216C11.4734 10.6207 11.3266 10.8954 11.111 11.111C10.8953 11.3266 10.6207 11.4734 10.3216 11.5329C10.0225 11.5924 9.71257 11.5618 9.43086 11.4451C9.14916 11.3285 8.90838 11.1309 8.73898 10.8773C8.56958 10.6238 8.47917 10.3257 8.47917 10.0208C8.47957 9.61209 8.64213 9.22019 8.93116 8.93116C9.22019 8.64213 9.61208 8.47958 10.0208 8.47917ZM15.4167 19.2708C15.4167 19.4753 15.3355 19.6713 15.1909 19.8159C15.0463 19.9605 14.8503 20.0417 14.6458 20.0417C14.4414 20.0417 14.2453 19.9605 14.1008 19.8159C13.9562 19.6713 13.875 19.4753 13.875 19.2708C13.875 18.2486 13.4689 17.2683 12.7461 16.5455C12.0233 15.8227 11.043 15.4167 10.0208 15.4167C8.99864 15.4167 8.01832 15.8227 7.29553 16.5455C6.57273 17.2683 6.16667 18.2486 6.16667 19.2708C6.16667 19.4753 6.08545 19.6713 5.94089 19.8159C5.79634 19.9605 5.60027 20.0417 5.39583 20.0417C5.1914 20.0417 4.99533 19.9605 4.85077 19.8159C4.70621 19.6713 4.625 19.4753 4.625 19.2708C4.625 17.8398 5.19349 16.4673 6.2054 15.4554C7.21732 14.4435 8.58977 13.875 10.0208 13.875C11.4519 13.875 12.8243 14.4435 13.8363 15.4554C14.8482 16.4673 15.4167 17.8398 15.4167 19.2708ZM17.7292 7.70834C17.7292 7.5039 17.8104 7.30783 17.9549 7.16327C18.0995 7.01871 18.2956 6.9375 18.5 6.9375H27.75C27.9544 6.9375 28.1505 7.01871 28.2951 7.16327C28.4396 7.30783 28.5208 7.5039 28.5208 7.70834C28.5208 7.91277 28.4396 8.10884 28.2951 8.2534C28.1505 8.39796 27.9544 8.47917 27.75 8.47917H18.5C18.2956 8.47917 18.0995 8.39796 17.9549 8.2534C17.8104 8.10884 17.7292 7.91277 17.7292 7.70834ZM28.5208 11.5625C28.5208 11.7669 28.4396 11.963 28.2951 12.1076C28.1505 12.2521 27.9544 12.3333 27.75 12.3333H18.5C18.2956 12.3333 18.0995 12.2521 17.9549 12.1076C17.8104 11.963 17.7292 11.7669 17.7292 11.5625C17.7292 11.3581 17.8104 11.162 17.9549 11.0174C18.0995 10.8729 18.2956 10.7917 18.5 10.7917H27.75C27.9544 10.7917 28.1505 10.8729 28.2951 11.0174C28.4396 11.162 28.5208 11.3581 28.5208 11.5625ZM28.5208 15.4167C28.5208 15.6211 28.4396 15.8172 28.2951 15.9617C28.1505 16.1063 27.9544 16.1875 27.75 16.1875H18.5C18.2956 16.1875 18.0995 16.1063 17.9549 15.9617C17.8104 15.8172 17.7292 15.6211 17.7292 15.4167C17.7292 15.2122 17.8104 15.0162 17.9549 14.8716C18.0995 14.727 18.2956 14.6458 18.5 14.6458H27.75C27.9544 14.6458 28.1505 14.727 28.2951 14.8716C28.4396 15.0162 28.5208 15.2122 28.5208 15.4167ZM25.4375 19.2708C25.4375 19.4753 25.3563 19.6713 25.2117 19.8159C25.0672 19.9605 24.8711 20.0417 24.6667 20.0417H18.5C18.2956 20.0417 18.0995 19.9605 17.9549 19.8159C17.8104 19.6713 17.7292 19.4753 17.7292 19.2708C17.7292 19.0664 17.8104 18.8703 17.9549 18.7258C18.0995 18.5812 18.2956 18.5 18.5 18.5H24.6667C24.8711 18.5 25.0672 18.5812 25.2117 18.7258C25.3563 18.8703 25.4375 19.0664 25.4375 19.2708Z" fill="#1C243A" fill-opacity="0.77"/>
</svg>
