<svg width="69" height="69" viewBox="0 0 69 69" fill="none" xmlns="http://www.w3.org/2000/svg">
<path d="M34.5001 63.25C37.6626 63.25 40.2501 60.6625 40.2501 57.5H28.7501C28.7501 60.6625 31.3088 63.25 34.5001 63.25ZM51.7501 46V31.625C51.7501 22.7987 47.0351 15.41 38.8126 13.455V11.5C38.8126 9.11375 36.8863 7.1875 34.5001 7.1875C32.1138 7.1875 30.1876 9.11375 30.1876 11.5V13.455C21.9363 15.41 17.2501 22.77 17.2501 31.625V46L13.5413 49.7088C11.7301 51.52 12.9951 54.625 15.5538 54.625H53.4176C55.9763 54.625 57.2701 51.52 55.4588 49.7088L51.7501 46Z" fill="white"/>
</svg>
