<svg width="14" height="16" viewBox="0 0 14 16" fill="none" xmlns="http://www.w3.org/2000/svg">
<path d="M12.7066 7.14882H7.74664V1.61311C7.74664 1.36842 7.65955 1.13374 7.50452 0.96072C7.34949 0.787695 7.13922 0.690491 6.91998 0.690491C6.70073 0.690491 6.49046 0.787695 6.33543 0.96072C6.1804 1.13374 6.09331 1.36842 6.09331 1.61311V7.14882H1.13331C0.914062 7.14882 0.703796 7.24603 0.548766 7.41905C0.393736 7.59208 0.306641 7.82675 0.306641 8.07144C0.306641 8.31614 0.393736 8.55081 0.548766 8.72383C0.703796 8.89686 0.914062 8.99406 1.13331 8.99406H6.09331V14.5298C6.09331 14.7745 6.1804 15.0091 6.33543 15.1822C6.49046 15.3552 6.70073 15.4524 6.91998 15.4524C7.13922 15.4524 7.34949 15.3552 7.50452 15.1822C7.65955 15.0091 7.74664 14.7745 7.74664 14.5298V8.99406H12.7066C12.9259 8.99406 13.1362 8.89686 13.2912 8.72383C13.4462 8.55081 13.5333 8.31614 13.5333 8.07144C13.5333 7.82675 13.4462 7.59208 13.2912 7.41905C13.1362 7.24603 12.9259 7.14882 12.7066 7.14882Z" fill="white"/>
</svg>
