<svg width="66" height="66" viewBox="0 0 66 66" fill="none" xmlns="http://www.w3.org/2000/svg">
<circle cx="33" cy="33" r="33" fill="#1C243A"/>
<path d="M29.8762 39.8038C32.6356 39.5815 35.4076 39.5815 38.167 39.8038C39.6696 39.8914 41.1651 40.0794 42.644 40.3666C45.8443 41.0145 47.9335 42.0718 48.829 43.777C49.5014 45.1078 49.5014 46.6921 48.829 48.023C47.9335 49.7282 45.9272 50.8537 42.6109 51.4334C41.1331 51.7314 39.6373 51.9251 38.1338 52.0132C36.741 52.1667 35.3481 52.1667 33.9387 52.1667H31.4017C30.8711 52.0985 30.3571 52.0644 29.8596 52.0644C28.3561 51.987 26.86 51.799 25.3826 51.5016C22.1824 50.8878 20.0931 49.7964 19.1977 48.0912C18.852 47.4306 18.6698 46.6927 18.6669 45.9426C18.6599 45.1879 18.8366 44.4434 19.1811 43.777C20.0599 42.0718 22.1492 40.9634 25.3826 40.3666C26.8665 40.0753 28.3677 39.8873 29.8762 39.8038ZM34.005 13.8333C39.5638 13.8333 44.07 18.4675 44.07 24.184C44.07 29.9005 39.5638 34.5347 34.005 34.5347C28.4463 34.5347 23.94 29.9005 23.94 24.184C23.94 18.4675 28.4463 13.8333 34.005 13.8333Z" fill="white"/>
</svg>
