<svg width="29" height="22" viewBox="0 0 29 22" fill="none" xmlns="http://www.w3.org/2000/svg">
<path fill-rule="evenodd" clip-rule="evenodd" d="M26.4783 22H2.52174C1.85293 22 1.21152 21.7425 0.7386 21.284C0.265683 20.8256 0 20.2039 0 19.5556V2.44444C0 1.79614 0.265683 1.17438 0.7386 0.715961C1.21152 0.257539 1.85293 0 2.52174 0H26.4783C27.1471 0 27.7885 0.257539 28.2614 0.715961C28.7343 1.17438 29 1.79614 29 2.44444V19.5556C29 20.2039 28.7343 20.8256 28.2614 21.284C27.7885 21.7425 27.1471 22 26.4783 22ZM6.93478 1.22222H2.52174C2.18734 1.22222 1.86663 1.35099 1.63017 1.5802C1.39371 1.80941 1.26087 2.12029 1.26087 2.44444V3.66667H6.93478V1.22222ZM13.8696 1.22222H8.19565V3.66667H13.8696V1.22222ZM20.8043 1.22222H15.1304V3.66667H20.8043V1.22222ZM27.7391 2.44444C27.7391 2.12029 27.6063 1.80941 27.3698 1.5802C27.1334 1.35099 26.8127 1.22222 26.4783 1.22222H22.0652V3.66667H27.7391V2.44444ZM27.7391 4.88889H1.26087V17.1111H27.7391V4.88889ZM27.7391 18.3333H22.0652V20.7778H20.8043V18.3333H15.1304V20.7778H13.8696V18.3333H8.19565V20.7778H6.93478V18.3333H1.26087V19.5556C1.26087 19.8797 1.39371 20.1906 1.63017 20.4198C1.86663 20.649 2.18734 20.7778 2.52174 20.7778H26.4783C26.8127 20.7778 27.1334 20.649 27.3698 20.4198C27.6063 20.1906 27.7391 19.8797 27.7391 19.5556V18.3333ZM13.0002 14.5231C12.8907 14.6133 12.7524 14.6641 12.6087 14.6667C12.4415 14.6667 12.2811 14.6023 12.1629 14.4877C12.0447 14.3731 11.9783 14.2176 11.9783 14.0556V7.94444C11.9783 7.78237 12.0447 7.62693 12.1629 7.51232C12.2811 7.39772 12.4415 7.33333 12.6087 7.33333C12.743 7.33333 12.8609 7.38344 12.9636 7.45311L17.8627 10.4304C17.985 10.4715 18.0911 10.5483 18.1663 10.6504C18.2415 10.7524 18.2822 10.8746 18.2826 11C18.2815 11.0935 18.2579 11.1855 18.2135 11.2686C18.1692 11.3517 18.1054 11.4236 18.0273 11.4785L13.0002 14.5231Z" fill="#1C243A"/>
</svg>
