<svg width="60" height="51" viewBox="0 0 60 51" fill="none" xmlns="http://www.w3.org/2000/svg">
<rect width="60" height="51" rx="10" fill="#1C243A" fill-opacity="0.1"/>
<path fill-rule="evenodd" clip-rule="evenodd" d="M41.4783 37H17.5217C16.8529 37 16.2115 36.7425 15.7386 36.284C15.2657 35.8256 15 35.2039 15 34.5556V17.4444C15 16.7961 15.2657 16.1744 15.7386 15.716C16.2115 15.2575 16.8529 15 17.5217 15H41.4783C42.1471 15 42.7885 15.2575 43.2614 15.716C43.7343 16.1744 44 16.7961 44 17.4444V34.5556C44 35.2039 43.7343 35.8256 43.2614 36.284C42.7885 36.7425 42.1471 37 41.4783 37ZM21.9348 16.2222H17.5217C17.1873 16.2222 16.8666 16.351 16.6302 16.5802C16.3937 16.8094 16.2609 17.1203 16.2609 17.4444V18.6667H21.9348V16.2222ZM28.8696 16.2222H23.1957V18.6667H28.8696V16.2222ZM35.8043 16.2222H30.1304V18.6667H35.8043V16.2222ZM42.7391 17.4444C42.7391 17.1203 42.6063 16.8094 42.3698 16.5802C42.1334 16.351 41.8127 16.2222 41.4783 16.2222H37.0652V18.6667H42.7391V17.4444ZM42.7391 19.8889H16.2609V32.1111H42.7391V19.8889ZM42.7391 33.3333H37.0652V35.7778H35.8043V33.3333H30.1304V35.7778H28.8696V33.3333H23.1957V35.7778H21.9348V33.3333H16.2609V34.5556C16.2609 34.8797 16.3937 35.1906 16.6302 35.4198C16.8666 35.649 17.1873 35.7778 17.5217 35.7778H41.4783C41.8127 35.7778 42.1334 35.649 42.3698 35.4198C42.6063 35.1906 42.7391 34.8797 42.7391 34.5556V33.3333ZM28.0002 29.5231C27.8907 29.6133 27.7524 29.6641 27.6087 29.6667C27.4415 29.6667 27.2811 29.6023 27.1629 29.4877C27.0447 29.3731 26.9783 29.2176 26.9783 29.0556V22.9444C26.9783 22.7824 27.0447 22.6269 27.1629 22.5123C27.2811 22.3977 27.4415 22.3333 27.6087 22.3333C27.743 22.3333 27.8609 22.3834 27.9636 22.4531L32.8627 25.4304C32.985 25.4715 33.0911 25.5483 33.1663 25.6504C33.2415 25.7524 33.2822 25.8746 33.2826 26C33.2815 26.0935 33.2579 26.1855 33.2135 26.2686C33.1692 26.3517 33.1054 26.4236 33.0273 26.4785L28.0002 29.5231Z" fill="#1C243A"/>
</svg>
