<svg width="18" height="11" viewBox="0 0 18 11" fill="none" xmlns="http://www.w3.org/2000/svg">
<path d="M9 0C4.96145 0 1.88836 2.40271 0 5.5C1.88836 8.59729 4.96145 11 9 11C13.0385 11 16.1125 8.59729 18 5.5C16.1125 2.40271 13.0377 0 9 0ZM9 9.42857C5.47364 9.42857 3.26536 7.29693 1.944 5.5C3.26536 3.70307 5.47364 1.57143 9 1.57143C12.5272 1.57143 14.7355 3.70307 16.056 5.5C14.7355 7.29693 12.5272 9.42857 9 9.42857Z" fill="#1C243A"/>
<path d="M9 8C10.1046 8 11 6.88071 11 5.5C11 4.11929 10.1046 3 9 3C7.89543 3 7 4.11929 7 5.5C7 6.88071 7.89543 8 9 8Z" fill="#1C243A"/>
</svg>
